# xmcd
#
# Track frame offsets:
#	150
#	15252
#	36128
#	59153
#	76217
#	97413
#	114824
#	143601
#	163667
#	188269
#	203008
#	221047
#	249223
#	270357
#	288748
#	315469
#	331090
#	345714
#
# Disc length: 4798 seconds
#
# Revision: 2
# Processed by: cddbd v1.5.2PL0 Copyright (c) Steve Scherf et al.
# Submitted via: EasyCDDAExtractor 8.2.3.1
#
DISCID=f412bc12
DTITLE=Various Artist - Whiskey, Bikers and Blues  Harley-2
DYEAR=2002
DGENRE=Blues
TTITLE0=Dr.FEELGOOD - Goin Out West
TTITLE1=STEVE PRYOR BAND - Moving me
TTITLE2=OMAR and THE HOWLERS - One Room Country Shack
TTITLE3=MICHAEL KATON - I'm Just Along For The Ride
TTITLE4=TURNING BLUE - Take Me Time
TTITLE5=PAUL DE LAY - No Use Worryin
TTITLE6=JAMES COTTON - 23 Hours Too Long
TTITLE7=GEORGE THOROGOOD - Madison Blues
TTITLE8=SAVOY BROWN - Worred Man
TTITLE9=OMAR and THE HOWLERS - Wall Of Pride
TTITLE10=RANDY BACHMAN - 15 Minutes Of Frame
TTITLE11=LIVIN BLUES - Red Lights
TTITLE12=JOHN MAYAL - Congo Square
TTITLE13=DAVE HOLE - Business Man
TTITLE14=JIMMY THACKERY - Red House
TTITLE15=LITTLE FEAT - Rad Gumbo
TTITLE16=BLUE JEANS - Come Back Home
TTITLE17=BLUE JEANS - Rock Me
EXTD=
EXTT0=
EXTT1=
EXTT2=
EXTT3=
EXTT4=
EXTT5=
EXTT6=
EXTT7=
EXTT8=
EXTT9=
EXTT10=
EXTT11=
EXTT12=
EXTT13=
EXTT14=
EXTT15=
EXTT16=
EXTT17=
PLAYORDER=
